<svg width="29" height="33" viewBox="0 0 29 33" fill="none" xmlns="http://www.w3.org/2000/svg">
<path d="M6.66659 9.20831C6.66659 5.98665 9.27826 3.37498 12.4999 3.37498C15.7215 3.37498 18.3333 5.98665 18.3333 9.20831C18.3333 12.43 15.7215 15.0416 12.4999 15.0416C9.27826 15.0416 6.66659 12.43 6.66659 9.20831ZM12.4999 0.458313C7.66743 0.458313 3.74992 4.37582 3.74992 9.20831C3.74992 14.0408 7.66743 17.9583 12.4999 17.9583C17.3324 17.9583 21.2499 14.0408 21.2499 9.20831C21.2499 4.37582 17.3324 0.458313 12.4999 0.458313ZM16.8749 25.25C16.8749 22.8337 18.8336 20.875 21.2499 20.875C21.9253 20.875 22.565 21.0281 23.1361 21.3014L17.3013 27.1362C17.028 26.5651 16.8749 25.9253 16.8749 25.25ZM19.3637 29.1986L25.1985 23.3638C25.4718 23.9349 25.6249 24.5746 25.6249 25.25C25.6249 27.6663 23.6662 29.625 21.2499 29.625C20.5746 29.625 19.9348 29.4719 19.3637 29.1986ZM21.2499 17.9583C17.2229 17.9583 13.9583 21.2229 13.9583 25.25C13.9583 29.277 17.2229 32.5416 21.2499 32.5416C25.277 32.5416 28.5416 29.277 28.5416 25.25C28.5416 21.2229 25.277 17.9583 21.2499 17.9583ZM12.4999 19.4166C12.6229 19.4166 12.7454 19.4185 12.8674 19.4223C12.2427 20.3192 11.7582 21.3211 11.4458 22.3962C7.11037 22.9166 3.74992 26.6075 3.74992 31.0833H0.833252C0.833252 24.64 6.05659 19.4166 12.4999 19.4166Z" fill="white"/>
</svg>
