<svg width="2294" height="706" viewBox="0 0 2294 706" fill="none" xmlns="http://www.w3.org/2000/svg">
<path d="M2226.63 217.302L2124.13 233.809C2120.84 234.15 2120.2 238.647 2123.03 240.346L2145.18 253.109L2148.06 285.149C2148.21 287.68 2151.12 289.039 2153.2 287.716L2170.01 277.887L2192.24 303.157C2193.98 304.97 2196.92 304.553 2198.13 302.323L2234 227.501C2236.3 221.946 2232.18 216.393 2226.63 217.302ZM2158.86 262.211L2151.88 279.215L2150.51 253.221L2226.48 224.405L2158.86 262.211Z" fill="white"/>
<path d="M2007.6 195.465L1865.4 218.366C1860.83 218.839 1859.95 225.077 1863.88 227.435L1894.6 245.142L1898.6 289.591C1898.81 293.103 1902.85 294.988 1905.73 293.153L1929.05 279.517L1959.88 314.574C1962.3 317.089 1966.38 316.511 1968.06 313.418L2017.82 209.614C2021.02 201.908 2015.3 194.204 2007.6 195.465ZM1913.58 257.768L1903.89 281.359L1901.99 245.297L2007.39 205.32L1913.58 257.768Z" fill="white"/>
<path d="M2124.48 416.139L1982.28 439.041C1977.72 439.514 1976.83 445.752 1980.76 448.109L2011.48 465.816L2015.48 510.265C2015.69 513.777 2019.73 515.663 2022.61 513.827L2045.93 500.191L2076.77 535.248C2079.18 537.763 2083.27 537.185 2084.94 534.092L2134.7 430.289C2137.9 422.582 2132.18 414.879 2124.48 416.139ZM2030.46 478.443L2020.77 502.034L2018.87 465.971L2124.27 425.994L2030.46 478.443Z" fill="white"/>
<path d="M2137.13 61.3266L2077.22 70.9753C2075.3 71.1746 2074.92 73.8028 2076.58 74.7961L2089.52 82.2564L2091.21 100.984C2091.3 102.463 2093 103.258 2094.21 102.484L2104.04 96.7391L2117.03 111.509C2118.05 112.569 2119.77 112.326 2120.47 111.022L2141.44 67.288C2142.79 64.0411 2140.38 60.7955 2137.13 61.3266ZM2097.52 87.5762L2093.44 97.5156L2092.64 82.3216L2137.04 65.4785L2097.52 87.5762Z" fill="white"/>
<path d="M2286.7 0.0809147L2202.24 13.6821C2199.53 13.9632 2199.01 17.668 2201.34 19.0681L2219.59 29.5845L2221.96 55.983C2222.09 58.0688 2224.49 59.1887 2226.2 58.0986L2240.05 49.9998L2258.36 70.8207C2259.79 72.3145 2262.22 71.9712 2263.22 70.1342L2292.77 8.48436C2294.67 3.90743 2291.27 -0.667745 2286.7 0.0809147ZM2230.86 37.0834L2225.11 51.0944L2223.98 29.6764L2286.57 5.93366L2230.86 37.0834Z" fill="white"/>
<path d="M1619.76 381.673L1517.25 398.181C1513.97 398.522 1513.33 403.018 1516.16 404.718L1538.31 417.481L1541.19 449.52C1541.34 452.052 1544.25 453.411 1546.33 452.088L1563.14 442.259L1585.36 467.528C1587.1 469.341 1590.05 468.925 1591.26 466.695L1627.13 391.872C1629.43 386.318 1625.31 380.765 1619.76 381.673ZM1551.99 426.582L1545 443.587L1543.63 417.593L1619.61 388.777L1551.99 426.582Z" fill="white"/>
<path d="M1444.29 370.256L1302.08 393.157C1297.52 393.631 1296.64 399.869 1300.57 402.226L1331.29 419.933L1335.29 464.382C1335.5 467.894 1339.54 469.78 1342.42 467.944L1365.74 454.308L1396.57 489.365C1398.98 491.88 1403.07 491.302 1404.75 488.209L1454.51 384.406C1457.71 376.699 1451.99 368.996 1444.29 370.256ZM1350.27 432.56L1340.58 456.151L1338.68 420.088L1444.08 380.111L1350.27 432.56Z" fill="white"/>
<path d="M511.447 422.523L333.705 451.148C328.005 451.739 326.894 459.536 331.809 462.483L370.21 484.615L375.208 540.173C375.471 544.563 380.517 546.92 384.12 544.626L413.27 527.581L451.809 571.4C454.824 574.544 459.934 573.822 462.029 569.955L524.229 440.209C528.222 430.576 521.078 420.947 511.447 422.523ZM393.933 500.397L381.822 529.885L379.448 484.809L511.189 434.84L393.933 500.397Z" fill="white"/>
<path d="M829.484 459.192L687.283 482.093C682.723 482.566 681.834 488.804 685.766 491.162L716.488 508.869L720.487 553.318C720.698 556.83 724.734 558.715 727.617 556.88L750.938 543.244L781.771 578.301C784.183 580.816 788.272 580.238 789.948 577.145L839.711 473.341C842.906 465.635 837.189 457.931 829.484 459.192ZM735.468 521.495L725.778 545.086L723.879 509.024L829.278 469.047L735.468 521.495Z" fill="white"/>
<path d="M146.208 426.942L4.00667 449.843C-0.553508 450.316 -1.44254 456.554 2.48956 458.912L33.2122 476.619L37.2106 521.068C37.4214 524.58 41.4582 526.465 44.3406 524.63L67.662 510.993L98.4951 546.051C100.907 548.566 104.996 547.988 106.672 544.895L156.434 441.091C159.629 433.385 153.913 425.681 146.208 426.942ZM52.1916 489.245L42.5021 512.836L40.6031 476.773L146.002 436.796L52.1916 489.245Z" fill="white"/>
<path d="M1517.61 580.511L1375.4 603.412C1370.84 603.886 1369.96 610.124 1373.89 612.481L1404.61 630.188L1408.61 674.637C1408.82 678.149 1412.86 680.035 1415.74 678.199L1439.06 664.563L1469.89 699.62C1472.3 702.135 1476.39 701.557 1478.07 698.464L1527.83 594.661C1531.03 586.954 1525.31 579.251 1517.61 580.511ZM1423.59 642.815L1413.9 666.406L1412 630.343L1517.4 590.366L1423.59 642.815Z" fill="white"/>
<path d="M1530.26 225.698L1470.35 235.347C1468.42 235.546 1468.05 238.175 1469.71 239.168L1482.65 246.628L1484.34 265.355C1484.42 266.835 1486.13 267.63 1487.34 266.856L1497.17 261.111L1510.16 275.881C1511.17 276.941 1512.89 276.697 1513.6 275.394L1534.57 231.66C1535.91 228.413 1533.5 225.167 1530.26 225.698ZM1490.65 251.948L1486.56 261.887L1485.77 246.693L1530.17 229.85L1490.65 251.948Z" fill="white"/>
<path d="M897.584 357.057L837.672 366.706C835.75 366.905 835.376 369.533 837.032 370.526L849.977 377.987L851.661 396.714C851.75 398.194 853.451 398.988 854.665 398.215L864.491 392.469L877.482 407.24C878.498 408.299 880.22 408.056 880.927 406.753L901.892 363.018C903.239 359.771 900.83 356.526 897.584 357.057ZM857.973 383.306L853.891 393.246L853.09 378.052L897.497 361.209L857.973 383.306Z" fill="white"/>
<path d="M303.046 364.264L243.134 373.913C241.213 374.112 240.838 376.74 242.495 377.734L255.439 385.194L257.124 403.921C257.212 405.401 258.913 406.195 260.128 405.422L269.953 399.677L282.944 414.447C283.96 415.507 285.683 415.263 286.389 413.96L307.355 370.226C308.701 366.979 306.293 363.733 303.046 364.264ZM263.435 390.514L259.353 400.453L258.553 385.259L302.96 368.416L263.435 390.514Z" fill="white"/>
<path d="M1131.67 352.066L1021.05 369.881C1017.5 370.25 1016.81 375.102 1019.87 376.936L1043.77 390.711L1046.88 425.289C1047.04 428.021 1050.18 429.488 1052.42 428.06L1070.56 417.452L1094.55 444.724C1096.43 446.68 1099.61 446.231 1100.91 443.825L1139.62 363.073C1142.11 357.078 1137.66 351.085 1131.67 352.066ZM1058.53 400.533L1050.99 418.885L1049.52 390.831L1131.51 359.732L1058.53 400.533Z" fill="white"/>
<path d="M968.656 556.767L833.659 578.508C829.33 578.957 828.486 584.879 832.219 587.117L861.385 603.927L865.181 646.124C865.381 649.458 869.213 651.248 871.95 649.505L894.089 636.56L923.36 669.841C925.65 672.229 929.531 671.68 931.123 668.743L978.364 570.2C981.397 562.884 975.97 555.57 968.656 556.767ZM879.403 615.914L870.204 638.309L868.402 604.074L968.46 566.122L879.403 615.914Z" fill="white"/>
<path d="M705.408 590.638L570.412 612.379C566.083 612.828 565.239 618.75 568.972 620.988L598.138 637.798L601.933 679.995C602.133 683.328 605.966 685.119 608.702 683.376L630.842 670.431L660.113 703.712C662.402 706.099 666.284 705.551 667.875 702.614L715.116 604.07C718.149 596.754 712.723 589.441 705.408 590.638ZM616.155 649.784L606.957 672.18L605.154 637.945L705.212 599.993L616.155 649.784Z" fill="white"/>
<path d="M566.382 548.779L506.469 558.428C504.548 558.627 504.173 561.255 505.83 562.249L518.774 569.709L520.459 588.436C520.547 589.916 522.248 590.71 523.463 589.937L533.288 584.192L546.279 598.962C547.295 600.022 549.018 599.778 549.724 598.475L570.69 554.74C572.036 551.494 569.628 548.248 566.382 548.779ZM526.77 575.029L522.688 584.968L521.888 569.774L566.295 552.931L526.77 575.029Z" fill="white"/>
<path d="M139.881 567.871L51.7246 582.069C48.8976 582.362 48.3464 586.229 50.7841 587.691L69.8303 598.668L72.3091 626.224C72.4398 628.401 74.9423 629.57 76.7292 628.432L91.1871 619.978L110.302 641.712C111.797 643.271 114.332 642.913 115.371 640.995L146.221 576.643C148.201 571.866 144.658 567.09 139.881 567.871ZM81.5964 606.496L75.5895 621.121L74.4122 598.764L139.753 573.981L81.5964 606.496Z" fill="white"/>
<path d="M1228.57 295.221L1185.4 302.174C1184.02 302.317 1183.75 304.211 1184.94 304.927L1194.27 310.302L1195.48 323.796C1195.54 324.862 1196.77 325.434 1197.64 324.877L1204.72 320.737L1214.08 331.38C1214.82 332.143 1216.06 331.968 1216.57 331.029L1231.67 299.517C1232.64 297.177 1230.91 294.839 1228.57 295.221ZM1200.03 314.135L1197.09 321.297L1196.51 310.349L1228.51 298.213L1200.03 314.135Z" fill="white"/>
<path d="M377.841 603.101L291.557 616.997C288.79 617.284 288.251 621.069 290.637 622.5L309.278 633.244L311.704 660.214C311.832 662.345 314.282 663.489 316.031 662.375L330.181 654.101L348.89 675.373C350.354 676.899 352.834 676.548 353.851 674.671L384.046 611.687C385.984 607.011 382.516 602.336 377.841 603.101ZM320.794 640.905L314.915 655.219L313.763 633.338L377.716 609.081L320.794 640.905Z" fill="white"/>
<path d="M1679.82 164.453L1595.37 178.054C1592.66 178.335 1592.13 182.04 1594.47 183.44L1612.71 193.956L1615.09 220.355C1615.21 222.441 1617.61 223.561 1619.32 222.47L1633.17 214.372L1651.49 235.192C1652.92 236.686 1655.35 236.343 1656.34 234.506L1685.9 172.856C1687.8 168.279 1684.4 163.704 1679.82 164.453ZM1623.99 201.455L1618.23 215.466L1617.1 194.048L1679.7 170.305L1623.99 201.455Z" fill="white"/>
<path d="M619.843 343.901L580.463 350.243C579.2 350.374 578.954 352.102 580.043 352.755L588.551 357.658L589.658 369.968C589.717 370.94 590.835 371.462 591.633 370.954L598.091 367.178L606.63 376.886C607.298 377.583 608.43 377.423 608.894 376.566L622.675 347.82C623.56 345.685 621.977 343.552 619.843 343.901ZM593.807 361.155L591.124 367.688L590.598 357.701L619.786 346.63L593.807 361.155Z" fill="white"/>
<path d="M1780.12 503.134L1636.48 529.961C1631.87 530.556 1631.13 536.905 1635.17 539.196L1666.78 556.377L1671.96 601.354C1672.26 604.911 1676.41 606.721 1679.28 604.787L1702.59 590.366L1734.75 625.14C1737.26 627.63 1741.39 626.94 1743.01 623.761L1790.85 517.225C1793.9 509.329 1787.9 501.661 1780.12 503.134ZM1686.35 568.701L1677.12 592.872L1674.28 556.346L1780.16 513.134L1686.35 568.701Z" fill="white"/>
<path d="M1952.59 545.756L1854.98 577.172C1851.83 577.996 1851.87 582.481 1854.89 583.717L1878.42 592.873L1886.01 623.723C1886.54 626.172 1889.58 627.064 1891.41 625.462L1906.36 613.357L1931.83 634.711C1933.8 636.221 1936.61 635.375 1937.46 633.018L1961.31 554.614C1962.73 548.846 1957.88 544.04 1952.59 545.756ZM1893.13 599.716L1888.85 617.361L1883.64 592.187L1953.51 552.714L1893.13 599.716Z" fill="white"/>
<path d="M1902.86 391.898L1838.64 417.269C1836.56 417.96 1836.78 420.972 1838.87 421.671L1855.07 426.796L1861.52 447.194C1861.98 448.816 1864.07 449.283 1865.23 448.127L1874.74 439.34L1892.79 452.577C1894.18 453.506 1896.03 452.814 1896.5 451.193L1909.1 397.469C1909.8 393.532 1906.33 390.514 1902.86 391.898ZM1865.26 430.752L1863.15 442.795L1858.55 426.107L1903.78 396.533L1865.26 430.752Z" fill="white"/>
<path d="M1799.65 255.44L1719.58 281.988C1716.99 282.689 1717.06 286.378 1719.55 287.373L1738.97 294.736L1745.44 320.061C1745.89 322.072 1748.4 322.784 1749.9 321.453L1762.1 311.386L1783.21 328.77C1784.84 329.999 1787.15 329.282 1787.83 327.337L1806.89 262.663C1808.01 257.909 1803.99 253.99 1799.65 255.44ZM1751.12 300.26L1747.73 314.807L1743.26 294.134L1800.45 261.157L1751.12 300.26Z" fill="white"/>
</svg>
