<svg width="1023" height="174" viewBox="0 0 1023 174" fill="none" xmlns="http://www.w3.org/2000/svg">
<path d="M381 4C382.105 4 383 3.10457 383 2C383 0.89543 382.105 0 381 0V4ZM13.5858 172.914C14.3668 173.695 15.6332 173.695 16.4142 172.914L29.1421 160.186C29.9232 159.405 29.9232 158.139 29.1421 157.358C28.3611 156.577 27.0948 156.577 26.3137 157.358L15 168.672L3.68629 157.358C2.90524 156.577 1.63891 156.577 0.857864 157.358C0.0768156 158.139 0.0768156 159.405 0.857864 160.186L13.5858 172.914ZM17 164.038C17 162.934 16.1046 162.038 15 162.038C13.8954 162.038 13 162.934 13 164.038H17ZM13 154.712C13 155.816 13.8954 156.712 15 156.712C16.1046 156.712 17 155.816 17 154.712H13ZM17 139.788C17 138.684 16.1046 137.788 15 137.788C13.8954 137.788 13 138.684 13 139.788H17ZM13 130.462C13 131.566 13.8954 132.462 15 132.462C16.1046 132.462 17 131.566 17 130.462H13ZM17 115.538C17 114.434 16.1046 113.538 15 113.538C13.8954 113.538 13 114.434 13 115.538H17ZM13 106.212C13 107.316 13.8954 108.212 15 108.212C16.1046 108.212 17 107.316 17 106.212H13ZM17 91.2885C17 90.1839 16.1046 89.2885 15 89.2885C13.8954 89.2885 13 90.1839 13 91.2885H17ZM13 81.9615C13 83.0661 13.8954 83.9615 15 83.9615C16.1046 83.9615 17 83.0661 17 81.9615H13ZM17 67.0385C17 65.9339 16.1046 65.0385 15 65.0385C13.8954 65.0385 13 65.9339 13 67.0385H17ZM13 57.7115C13 58.8161 13.8954 59.7115 15 59.7115C16.1046 59.7115 17 58.8161 17 57.7115H13ZM17 42.7885C17 41.6839 16.1046 40.7885 15 40.7885C13.8954 40.7885 13 41.6839 13 42.7885H17ZM13 33.4615C13 34.5661 13.8954 35.4615 15 35.4615C16.1046 35.4615 17 34.5661 17 33.4615H13ZM19.5148 15.7754C20.029 14.7978 19.6533 13.5885 18.6757 13.0743C17.6981 12.5602 16.4887 12.9359 15.9746 13.9135L19.5148 15.7754ZM26.9135 2.9746C25.9359 3.48874 25.5602 4.69805 26.0743 5.67567C26.5884 6.65328 27.7978 7.02899 28.7754 6.51485L26.9135 2.9746ZM47.0947 4C48.1992 4 49.0947 3.10457 49.0947 2C49.0947 0.89543 48.1992 0 47.0947 0V4ZM57.213 0C56.1084 0 55.213 0.89543 55.213 2C55.213 3.10457 56.1084 4 57.213 4V0ZM73.4024 4C74.5069 4 75.4024 3.10457 75.4024 2C75.4024 0.89543 74.5069 0 73.4024 0V4ZM83.5207 0C82.4161 0 81.5207 0.89543 81.5207 2C81.5207 3.10457 82.4161 4 83.5207 4V0ZM99.7101 4C100.815 4 101.71 3.10457 101.71 2C101.71 0.89543 100.815 0 99.7101 0V4ZM109.828 0C108.724 0 107.828 0.89543 107.828 2C107.828 3.10457 108.724 4 109.828 4V0ZM126.018 4C127.122 4 128.018 3.10457 128.018 2C128.018 0.89543 127.122 0 126.018 0V4ZM136.136 0C135.032 0 134.136 0.89543 134.136 2C134.136 3.10457 135.032 4 136.136 4V0ZM152.325 4C153.43 4 154.325 3.10457 154.325 2C154.325 0.89543 153.43 0 152.325 0V4ZM162.444 0C161.339 0 160.444 0.89543 160.444 2C160.444 3.10457 161.339 4 162.444 4V0ZM178.633 4C179.738 4 180.633 3.10457 180.633 2C180.633 0.89543 179.738 0 178.633 0V4ZM188.751 0C187.647 0 186.751 0.89543 186.751 2C186.751 3.10457 187.647 4 188.751 4V0ZM204.941 4C206.045 4 206.941 3.10457 206.941 2C206.941 0.89543 206.045 0 204.941 0V4ZM215.059 0C213.955 0 213.059 0.89543 213.059 2C213.059 3.10457 213.955 4 215.059 4V0ZM231.249 4C232.353 4 233.249 3.10457 233.249 2C233.249 0.89543 232.353 0 231.249 0V4ZM241.367 0C240.262 0 239.367 0.89543 239.367 2C239.367 3.10457 240.262 4 241.367 4V0ZM257.556 4C258.661 4 259.556 3.10457 259.556 2C259.556 0.89543 258.661 0 257.556 0V4ZM267.675 0C266.57 0 265.675 0.89543 265.675 2C265.675 3.10457 266.57 4 267.675 4V0ZM283.864 4C284.968 4 285.864 3.10457 285.864 2C285.864 0.89543 284.968 0 283.864 0V4ZM293.982 0C292.878 0 291.982 0.89543 291.982 2C291.982 3.10457 292.878 4 293.982 4V0ZM310.172 4C311.276 4 312.172 3.10457 312.172 2C312.172 0.89543 311.276 0 310.172 0V4ZM320.29 0C319.185 0 318.29 0.89543 318.29 2C318.29 3.10457 319.185 4 320.29 4V0ZM336.479 4C337.584 4 338.479 3.10457 338.479 2C338.479 0.89543 337.584 0 336.479 0V4ZM346.598 0C345.493 0 344.598 0.89543 344.598 2C344.598 3.10457 345.493 4 346.598 4V0ZM362.787 4C363.892 4 364.787 3.10457 364.787 2C364.787 0.89543 363.892 0 362.787 0V4ZM372.905 0C371.801 0 370.905 0.89543 370.905 2C370.905 3.10457 371.801 4 372.905 4V0ZM17 171.5V164.038H13V171.5H17ZM17 154.712V139.788H13V154.712H17ZM17 130.462V115.538H13V130.462H17ZM17 106.212V91.2885H13V106.212H17ZM17 81.9615V67.0385H13V81.9615H17ZM17 57.7115V42.7885H13V57.7115H17ZM17 33.4615V26H13V33.4615H17ZM17 26C17 22.3049 17.9094 18.8281 19.5148 15.7754L15.9746 13.9135C14.0744 17.5265 13 21.6407 13 26H17ZM28.7754 6.51485C31.8281 4.90938 35.3049 4 39 4V0C34.6407 0 30.5265 1.07442 26.9135 2.9746L28.7754 6.51485ZM39 4H47.0947V0H39V4ZM57.213 4H73.4024V0H57.213V4ZM83.5207 4H99.7101V0H83.5207V4ZM109.828 4H126.018V0H109.828V4ZM136.136 4H152.325V0H136.136V4ZM162.444 4H178.633V0H162.444V4ZM188.751 4H204.941V0H188.751V4ZM215.059 4H231.249V0H215.059V4ZM241.367 4H257.556V0H241.367V4ZM267.675 4H283.864V0H267.675V4ZM293.982 4H310.172V0H293.982V4ZM320.29 4H336.479V0H320.29V4ZM346.598 4H362.787V0H346.598V4ZM372.905 4H381V0H372.905V4Z" fill="#436DFF"/>
<path d="M633 0C631.895 0 631 0.89543 631 2C631 3.10457 631.895 4 633 4V0ZM1006.59 172.914C1007.37 173.695 1008.63 173.695 1009.41 172.914L1022.14 160.186C1022.92 159.405 1022.92 158.139 1022.14 157.358C1021.36 156.577 1020.09 156.577 1019.31 157.358L1008 168.672L996.686 157.358C995.905 156.577 994.639 156.577 993.858 157.358C993.077 158.139 993.077 159.405 993.858 160.186L1006.59 172.914ZM640.714 4C641.819 4 642.714 3.10457 642.714 2C642.714 0.89543 641.819 0 640.714 0V4ZM650.357 0C649.253 0 648.357 0.89543 648.357 2C648.357 3.10457 649.253 4 650.357 4V0ZM665.786 4C666.89 4 667.786 3.10457 667.786 2C667.786 0.89543 666.89 0 665.786 0V4ZM675.429 0C674.324 0 673.429 0.89543 673.429 2C673.429 3.10457 674.324 4 675.429 4V0ZM690.857 4C691.962 4 692.857 3.10457 692.857 2C692.857 0.89543 691.962 0 690.857 0V4ZM700.5 0C699.395 0 698.5 0.89543 698.5 2C698.5 3.10457 699.395 4 700.5 4V0ZM715.929 4C717.033 4 717.929 3.10457 717.929 2C717.929 0.89543 717.033 0 715.929 0V4ZM725.571 0C724.467 0 723.571 0.89543 723.571 2C723.571 3.10457 724.467 4 725.571 4V0ZM741 4C742.105 4 743 3.10457 743 2C743 0.89543 742.105 0 741 0V4ZM750.643 0C749.538 0 748.643 0.89543 748.643 2C748.643 3.10457 749.538 4 750.643 4V0ZM766.071 4C767.176 4 768.071 3.10457 768.071 2C768.071 0.89543 767.176 0 766.071 0V4ZM775.714 0C774.61 0 773.714 0.89543 773.714 2C773.714 3.10457 774.61 4 775.714 4V0ZM791.143 4C792.247 4 793.143 3.10457 793.143 2C793.143 0.89543 792.247 0 791.143 0V4ZM800.786 0C799.681 0 798.786 0.89543 798.786 2C798.786 3.10457 799.681 4 800.786 4V0ZM816.214 4C817.319 4 818.214 3.10457 818.214 2C818.214 0.89543 817.319 0 816.214 0V4ZM825.857 0C824.753 0 823.857 0.89543 823.857 2C823.857 3.10457 824.753 4 825.857 4V0ZM841.286 4C842.39 4 843.286 3.10457 843.286 2C843.286 0.89543 842.39 0 841.286 0V4ZM850.929 0C849.824 0 848.929 0.89543 848.929 2C848.929 3.10457 849.824 4 850.929 4V0ZM866.357 4C867.462 4 868.357 3.10457 868.357 2C868.357 0.89543 867.462 0 866.357 0V4ZM876 0C874.895 0 874 0.89543 874 2C874 3.10457 874.895 4 876 4V0ZM891.429 4C892.533 4 893.429 3.10457 893.429 2C893.429 0.89543 892.533 0 891.429 0V4ZM901.071 0C899.967 0 899.071 0.89543 899.071 2C899.071 3.10457 899.967 4 901.071 4V0ZM916.5 4C917.605 4 918.5 3.10457 918.5 2C918.5 0.89543 917.605 0 916.5 0V4ZM926.143 0C925.038 0 924.143 0.89543 924.143 2C924.143 3.10457 925.038 4 926.143 4V0ZM941.571 4C942.676 4 943.571 3.10457 943.571 2C943.571 0.89543 942.676 0 941.571 0V4ZM951.214 0C950.11 0 949.214 0.89543 949.214 2C949.214 3.10457 950.11 4 951.214 4V0ZM966.643 4C967.747 4 968.643 3.10457 968.643 2C968.643 0.89543 967.747 0 966.643 0V4ZM976.286 0C975.181 0 974.286 0.89543 974.286 2C974.286 3.10457 975.181 4 976.286 4V0ZM994.225 6.51485C995.202 7.02899 996.412 6.65328 996.926 5.67567C997.44 4.69805 997.064 3.48874 996.087 2.9746L994.225 6.51485ZM1007.03 13.9135C1006.51 12.9359 1005.3 12.5602 1004.32 13.0743C1003.35 13.5885 1002.97 14.7978 1003.49 15.7754L1007.03 13.9135ZM1006 33.4615C1006 34.5661 1006.9 35.4615 1008 35.4615C1009.1 35.4615 1010 34.5661 1010 33.4615H1006ZM1010 42.7885C1010 41.6839 1009.1 40.7885 1008 40.7885C1006.9 40.7885 1006 41.6839 1006 42.7885H1010ZM1006 57.7115C1006 58.8161 1006.9 59.7115 1008 59.7115C1009.1 59.7115 1010 58.8161 1010 57.7115H1006ZM1010 67.0385C1010 65.9339 1009.1 65.0385 1008 65.0385C1006.9 65.0385 1006 65.9339 1006 67.0385H1010ZM1006 81.9615C1006 83.0661 1006.9 83.9615 1008 83.9615C1009.1 83.9615 1010 83.0661 1010 81.9615H1006ZM1010 91.2885C1010 90.1839 1009.1 89.2885 1008 89.2885C1006.9 89.2885 1006 90.1839 1006 91.2885H1010ZM1006 106.212C1006 107.316 1006.9 108.212 1008 108.212C1009.1 108.212 1010 107.316 1010 106.212H1006ZM1010 115.538C1010 114.434 1009.1 113.538 1008 113.538C1006.9 113.538 1006 114.434 1006 115.538H1010ZM1006 130.462C1006 131.566 1006.9 132.462 1008 132.462C1009.1 132.462 1010 131.566 1010 130.462H1006ZM1010 139.788C1010 138.684 1009.1 137.788 1008 137.788C1006.9 137.788 1006 138.684 1006 139.788H1010ZM1006 154.712C1006 155.816 1006.9 156.712 1008 156.712C1009.1 156.712 1010 155.816 1010 154.712H1006ZM1010 164.038C1010 162.934 1009.1 162.038 1008 162.038C1006.9 162.038 1006 162.934 1006 164.038H1010ZM633 4H640.714V0H633V4ZM650.357 4H665.786V0H650.357V4ZM675.429 4H690.857V0H675.429V4ZM700.5 4H715.929V0H700.5V4ZM725.571 4H741V0H725.571V4ZM750.643 4H766.071V0H750.643V4ZM775.714 4H791.143V0H775.714V4ZM800.786 4H816.214V0H800.786V4ZM825.857 4H841.286V0H825.857V4ZM850.929 4H866.357V0H850.929V4ZM876 4H891.429V0H876V4ZM901.071 4H916.5V0H901.071V4ZM926.143 4H941.571V0H926.143V4ZM951.214 4H966.643V0H951.214V4ZM976.286 4H984V0H976.286V4ZM984 4C987.695 4 991.172 4.90938 994.225 6.51485L996.087 2.9746C992.473 1.07442 988.359 0 984 0V4ZM1003.49 15.7754C1005.09 18.8281 1006 22.3049 1006 26H1010C1010 21.6407 1008.93 17.5265 1007.03 13.9135L1003.49 15.7754ZM1006 26V33.4615H1010V26H1006ZM1006 42.7885V57.7115H1010V42.7885H1006ZM1006 67.0385V81.9615H1010V67.0385H1006ZM1006 91.2885V106.212H1010V91.2885H1006ZM1006 115.538V130.462H1010V115.538H1006ZM1006 139.788V154.712H1010V139.788H1006ZM1006 164.038V171.5H1010V164.038H1006Z" fill="#0039FF"/>
<path d="M381 4C382.105 4 383 3.10457 383 2C383 0.89543 382.105 0 381 0V4ZM344.586 172.914C345.367 173.695 346.633 173.695 347.414 172.914L360.142 160.186C360.923 159.405 360.923 158.139 360.142 157.358C359.361 156.577 358.095 156.577 357.314 157.358L346 168.672L334.686 157.358C333.905 156.577 332.639 156.577 331.858 157.358C331.077 158.139 331.077 159.405 331.858 160.186L344.586 172.914ZM348 164.038C348 162.934 347.105 162.038 346 162.038C344.895 162.038 344 162.934 344 164.038H348ZM344 154.712C344 155.816 344.895 156.712 346 156.712C347.105 156.712 348 155.816 348 154.712H344ZM348 139.788C348 138.684 347.105 137.788 346 137.788C344.895 137.788 344 138.684 344 139.788H348ZM344 130.462C344 131.566 344.895 132.462 346 132.462C347.105 132.462 348 131.566 348 130.462H344ZM348 115.538C348 114.434 347.105 113.538 346 113.538C344.895 113.538 344 114.434 344 115.538H348ZM344 106.212C344 107.316 344.895 108.212 346 108.212C347.105 108.212 348 107.316 348 106.212H344ZM348 91.2885C348 90.1839 347.105 89.2885 346 89.2885C344.895 89.2885 344 90.1839 344 91.2885H348ZM344 81.9615C344 83.0661 344.895 83.9615 346 83.9615C347.105 83.9615 348 83.0661 348 81.9615H344ZM348 67.0385C348 65.9339 347.105 65.0385 346 65.0385C344.895 65.0385 344 65.9339 344 67.0385H348ZM344 57.7115C344 58.8161 344.895 59.7115 346 59.7115C347.105 59.7115 348 58.8161 348 57.7115H344ZM348 42.7885C348 41.6839 347.105 40.7885 346 40.7885C344.895 40.7885 344 41.6839 344 42.7885H348ZM344 33.4615C344 34.5661 344.895 35.4615 346 35.4615C347.105 35.4615 348 34.5661 348 33.4615H344ZM350.515 15.7754C351.029 14.7978 350.653 13.5885 349.676 13.0743C348.698 12.5602 347.489 12.9359 346.975 13.9135L350.515 15.7754ZM357.913 2.9746C356.936 3.48874 356.56 4.69805 357.074 5.67567C357.588 6.65328 358.798 7.02899 359.775 6.51485L357.913 2.9746ZM373.385 4C374.489 4 375.385 3.10457 375.385 2C375.385 0.89543 374.489 0 373.385 0V4ZM377.615 0C376.511 0 375.615 0.89543 375.615 2C375.615 3.10457 376.511 4 377.615 4V0ZM348 171.5V164.038H344V171.5H348ZM348 154.712V139.788H344V154.712H348ZM348 130.462V115.538H344V130.462H348ZM348 106.212V91.2885H344V106.212H348ZM348 81.9615V67.0385H344V81.9615H348ZM348 57.7115V42.7885H344V57.7115H348ZM348 33.4615V26H344V33.4615H348ZM348 26C348 22.3049 348.909 18.8281 350.515 15.7754L346.975 13.9135C345.074 17.5265 344 21.6407 344 26H348ZM359.775 6.51485C362.828 4.90938 366.305 4 370 4V0C365.641 0 361.527 1.07442 357.913 2.9746L359.775 6.51485ZM370 4H373.385V0H370V4ZM377.615 4H381V0H377.615V4Z" fill="#436DFF"/>
<path d="M633 0C631.895 0 631 0.89543 631 2C631 3.10457 631.895 4 633 4V0ZM675.586 172.914C676.367 173.695 677.633 173.695 678.414 172.914L691.142 160.186C691.923 159.405 691.923 158.139 691.142 157.358C690.361 156.577 689.095 156.577 688.314 157.358L677 168.672L665.686 157.358C664.905 156.577 663.639 156.577 662.858 157.358C662.077 158.139 662.077 159.405 662.858 160.186L675.586 172.914ZM639.154 4C640.258 4 641.154 3.10457 641.154 2C641.154 0.89543 640.258 0 639.154 0V4ZM646.846 0C645.742 0 644.846 0.89543 644.846 2C644.846 3.10457 645.742 4 646.846 4V0ZM663.225 6.51485C664.202 7.02899 665.412 6.65328 665.926 5.67567C666.44 4.69806 666.064 3.48874 665.087 2.9746L663.225 6.51485ZM676.025 13.9135C675.511 12.9359 674.302 12.5602 673.324 13.0743C672.347 13.5885 671.971 14.7978 672.485 15.7754L676.025 13.9135ZM675 33.4615C675 34.5661 675.895 35.4615 677 35.4615C678.105 35.4615 679 34.5661 679 33.4615H675ZM679 42.7885C679 41.6839 678.105 40.7885 677 40.7885C675.895 40.7885 675 41.6839 675 42.7885H679ZM675 57.7115C675 58.8161 675.895 59.7115 677 59.7115C678.105 59.7115 679 58.8161 679 57.7115H675ZM679 67.0385C679 65.9339 678.105 65.0385 677 65.0385C675.895 65.0385 675 65.9339 675 67.0385H679ZM675 81.9615C675 83.0661 675.895 83.9615 677 83.9615C678.105 83.9615 679 83.0661 679 81.9615H675ZM679 91.2885C679 90.1839 678.105 89.2885 677 89.2885C675.895 89.2885 675 90.1839 675 91.2885H679ZM675 106.212C675 107.316 675.895 108.212 677 108.212C678.105 108.212 679 107.316 679 106.212H675ZM679 115.538C679 114.434 678.105 113.538 677 113.538C675.895 113.538 675 114.434 675 115.538H679ZM675 130.462C675 131.566 675.895 132.462 677 132.462C678.105 132.462 679 131.566 679 130.462H675ZM679 139.788C679 138.684 678.105 137.788 677 137.788C675.895 137.788 675 138.684 675 139.788H679ZM675 154.712C675 155.816 675.895 156.712 677 156.712C678.105 156.712 679 155.816 679 154.712H675ZM679 164.038C679 162.934 678.105 162.038 677 162.038C675.895 162.038 675 162.934 675 164.038H679ZM633 4H639.154V0H633V4ZM646.846 4H653V0H646.846V4ZM653 4C656.695 4 660.172 4.90938 663.225 6.51485L665.087 2.9746C661.473 1.07442 657.359 0 653 0V4ZM672.485 15.7754C674.091 18.8281 675 22.3049 675 26H679C679 21.6407 677.926 17.5265 676.025 13.9135L672.485 15.7754ZM675 26V33.4615H679V26H675ZM675 42.7885V57.7115H679V42.7885H675ZM675 67.0385V81.9615H679V67.0385H675ZM675 91.2885V106.212H679V91.2885H675ZM675 115.538V130.462H679V115.538H675ZM675 139.788V154.712H679V139.788H675ZM675 164.038V171.5H679V164.038H675Z" fill="#436DFF"/>
</svg>
